<svg width="1440" height="1024" viewBox="0 0 1440 1024" fill="none" xmlns="http://www.w3.org/2000/svg">
<g clip-path="url(#clip0)">
<rect width="1440" height="1024" fill="white"/>
<path fill-rule="evenodd" clip-rule="evenodd" d="M0 490.552L20.4 431.28C39.6 372.008 80.4 253.464 120 297.918C159.6 342.372 200.4 549.824 240 653.55C279.6 757.276 320.4 757.276 360 698.004C399.6 638.732 440.4 520.188 480 446.098C519.6 372.008 560.4 342.372 600 416.462C639.6 490.552 680.4 668.368 720 668.368C759.6 668.368 800.4 490.552 840 505.37C879.6 520.188 920.4 727.64 960 772.094C999.6 816.548 1040.4 698.004 1080 623.914C1119.6 549.824 1160.4 520.188 1200 446.098C1239.6 372.008 1280.4 253.464 1320 238.646C1359.6 223.828 1400.4 312.736 1419.6 357.19L1440 401.644V1024H1419.6C1400.4 1024 1359.6 1024 1320 1024C1280.4 1024 1239.6 1024 1200 1024C1160.4 1024 1119.6 1024 1080 1024C1040.4 1024 999.6 1024 960 1024C920.4 1024 879.6 1024 840 1024C800.4 1024 759.6 1024 720 1024C680.4 1024 639.6 1024 600 1024C560.4 1024 519.6 1024 480 1024C440.4 1024 399.6 1024 360 1024C320.4 1024 279.6 1024 240 1024C200.4 1024 159.6 1024 120 1024C80.4 1024 39.6 1024 20.4 1024H0V490.552Z" fill="#73FFCD" fill-opacity="0.3" style="mix-blend-mode:multiply"/>
<path fill-rule="evenodd" clip-rule="evenodd" d="M0 490.552L20.4 431.28C39.6 372.008 80.4 253.464 120 297.918C159.6 342.372 200.4 549.824 240 653.55C279.6 757.276 320.4 757.276 360 698.004C399.6 638.732 440.4 520.188 480 446.098C519.6 372.008 560.4 342.372 600 416.462C639.6 490.552 680.4 668.368 720 668.368C759.6 668.368 800.4 490.552 840 505.37C879.6 520.188 920.4 727.64 960 772.094C999.6 816.548 1040.4 698.004 1080 623.914C1119.6 549.824 1160.4 520.188 1200 446.098C1239.6 372.008 1280.4 253.464 1320 238.646C1359.6 223.828 1400.4 312.736 1419.6 357.19L1440 401.644V1024H1419.6C1400.4 1024 1359.6 1024 1320 1024C1280.4 1024 1239.6 1024 1200 1024C1160.4 1024 1119.6 1024 1080 1024C1040.4 1024 999.6 1024 960 1024C920.4 1024 879.6 1024 840 1024C800.4 1024 759.6 1024 720 1024C680.4 1024 639.6 1024 600 1024C560.4 1024 519.6 1024 480 1024C440.4 1024 399.6 1024 360 1024C320.4 1024 279.6 1024 240 1024C200.4 1024 159.6 1024 120 1024C80.4 1024 39.6 1024 20.4 1024H0V490.552Z" />
<path fill-rule="evenodd" clip-rule="evenodd" d="M0 894.362L15.6 840.347C32.4 786.331 63.6 678.3 96 689.103C128.4 699.906 159.6 829.543 192 797.134C224.4 764.725 255.6 570.268 288 548.662C320.4 527.056 351.6 678.3 384 699.906C416.4 721.512 447.6 613.481 480 624.284C512.4 635.087 543.6 764.725 576 743.118C608.4 721.512 639.6 548.662 672 462.237C704.4 375.812 735.6 375.812 768 451.434C800.4 527.056 831.6 678.3 864 678.3C896.4 678.3 927.6 527.056 960 494.646C992.4 462.237 1023.6 548.662 1056 581.071C1088.4 613.481 1119.6 591.874 1152 635.087C1184.4 678.3 1215.6 786.331 1248 753.922C1280.4 721.512 1311.6 548.662 1344 516.252C1376.4 483.843 1407.6 591.874 1424.4 645.89L1440 699.906V1024H1424.4C1407.6 1024 1376.4 1024 1344 1024C1311.6 1024 1280.4 1024 1248 1024C1215.6 1024 1184.4 1024 1152 1024C1119.6 1024 1088.4 1024 1056 1024C1023.6 1024 992.4 1024 960 1024C927.6 1024 896.4 1024 864 1024C831.6 1024 800.4 1024 768 1024C735.6 1024 704.4 1024 672 1024C639.6 1024 608.4 1024 576 1024C543.6 1024 512.4 1024 480 1024C447.6 1024 416.4 1024 384 1024C351.6 1024 320.4 1024 288 1024C255.6 1024 224.4 1024 192 1024C159.6 1024 128.4 1024 96 1024C63.6 1024 32.4 1024 15.6 1024H0V894.362Z" fill="#7DFFD1" fill-opacity="0.3"/>
<path fill-rule="evenodd" clip-rule="evenodd" d="M0 901.872L6 922.227C13.2 942.582 26.4 983.291 38.4 942.582C51.6 901.872 64.8 779.745 78 766.175C91.2 752.605 103.2 847.593 116.4 901.872C129.6 956.151 142.8 969.721 156 969.721C169.2 969.721 181.2 956.151 194.4 949.366C207.6 942.582 220.8 942.582 234 901.872C246 861.163 259.2 779.745 272.4 779.745C285.6 779.745 298.8 861.163 310.8 867.948C324 874.733 337.2 806.884 350.4 786.53C363.6 766.175 376.8 793.315 388.8 779.745C402 766.175 415.2 711.896 428.4 705.111C441.6 698.326 453.6 739.036 466.8 766.175C480 793.315 493.2 806.884 506.4 779.745C518.4 752.605 531.6 684.757 544.8 650.832C558 616.908 571.2 616.908 583.2 677.972C596.4 739.036 609.6 861.163 622.8 901.872C636 942.582 649.2 901.872 661.2 854.378C674.4 806.884 687.6 752.605 700.8 779.745C714 806.884 726 915.442 739.2 935.797C752.4 956.151 765.6 888.303 778.8 881.518C790.8 874.733 804 929.012 817.2 922.227C830.4 915.442 843.6 847.593 856.8 800.099C868.8 752.605 882 725.466 895.2 725.466C908.4 725.466 921.6 752.605 933.6 786.53C946.8 820.454 960 861.163 973.2 888.303C986.4 915.442 998.4 929.012 1011.6 922.227C1024.8 915.442 1038 888.303 1051.2 888.303C1063.2 888.303 1076.4 915.442 1089.6 915.442C1102.8 915.442 1116 888.303 1129.2 874.733C1141.2 861.163 1154.4 861.163 1167.6 867.948C1180.8 874.733 1194 888.303 1206 854.378C1219.2 820.454 1232.4 739.036 1245.6 711.896C1258.8 684.757 1270.8 711.896 1284 739.036C1297.2 766.175 1310.4 793.315 1323.6 772.96C1336.8 752.605 1348.8 684.757 1362 650.832C1375.2 616.908 1388.4 616.908 1401.6 630.478C1413.6 644.047 1426.8 671.187 1434 684.757L1440 698.326V1024H1434C1426.8 1024 1413.6 1024 1401.6 1024C1388.4 1024 1375.2 1024 1362 1024C1348.8 1024 1336.8 1024 1323.6 1024C1310.4 1024 1297.2 1024 1284 1024C1270.8 1024 1258.8 1024 1245.6 1024C1232.4 1024 1219.2 1024 1206 1024C1194 1024 1180.8 1024 1167.6 1024C1154.4 1024 1141.2 1024 1129.2 1024C1116 1024 1102.8 1024 1089.6 1024C1076.4 1024 1063.2 1024 1051.2 1024C1038 1024 1024.8 1024 1011.6 1024C998.4 1024 986.4 1024 973.2 1024C960 1024 946.8 1024 933.6 1024C921.6 1024 908.4 1024 895.2 1024C882 1024 868.8 1024 856.8 1024C843.6 1024 830.4 1024 817.2 1024C804 1024 790.8 1024 778.8 1024C765.6 1024 752.4 1024 739.2 1024C726 1024 714 1024 700.8 1024C687.6 1024 674.4 1024 661.2 1024C649.2 1024 636 1024 622.8 1024C609.6 1024 596.4 1024 583.2 1024C571.2 1024 558 1024 544.8 1024C531.6 1024 518.4 1024 506.4 1024C493.2 1024 480 1024 466.8 1024C453.6 1024 441.6 1024 428.4 1024C415.2 1024 402 1024 388.8 1024C376.8 1024 363.6 1024 350.4 1024C337.2 1024 324 1024 310.8 1024C298.8 1024 285.6 1024 272.4 1024C259.2 1024 246 1024 234 1024C220.8 1024 207.6 1024 194.4 1024C181.2 1024 169.2 1024 156 1024C142.8 1024 129.6 1024 116.4 1024C103.2 1024 91.2 1024 78 1024C64.8 1024 51.6 1024 38.4 1024C26.4 1024 13.2 1024 6 1024H0V901.872Z" fill="#87FFD4" fill-opacity="0.3"/>
</g>
<defs>
<clipPath id="clip0">
<rect width="1440" height="1024" fill="white"/>
</clipPath>
</defs>
</svg>
