<svg width="1920" height="934" viewBox="0 0 1920 934" fill="none" xmlns="http://www.w3.org/2000/svg">
<path fill-rule="evenodd" clip-rule="evenodd" d="M0 300.912L27.2 230.569C52.8 160.226 107.2 19.5395 160 72.2969C212.8 125.054 267.2 371.255 320 494.356C372.8 617.456 427.2 617.456 480 547.113C532.8 476.77 587.2 336.084 640 248.155C692.8 160.226 747.2 125.054 800 212.983C852.8 300.912 907.2 511.941 960 511.941C1012.8 511.941 1067.2 300.912 1120 318.498C1172.8 336.084 1227.2 582.284 1280 635.042C1332.8 687.799 1387.2 547.113 1440 459.184C1492.8 371.255 1547.2 336.084 1600 248.155C1652.8 160.226 1707.2 19.5395 1760 1.95375C1812.8 -15.632 1867.2 89.8826 1892.8 142.64L1920 195.397V934H1892.8C1867.2 934 1812.8 934 1760 934C1707.2 934 1652.8 934 1600 934C1547.2 934 1492.8 934 1440 934C1387.2 934 1332.8 934 1280 934C1227.2 934 1172.8 934 1120 934C1067.2 934 1012.8 934 960 934C907.2 934 852.8 934 800 934C747.2 934 692.8 934 640 934C587.2 934 532.8 934 480 934C427.2 934 372.8 934 320 934C267.2 934 212.8 934 160 934C107.2 934 52.8 934 27.2 934H0V300.912Z" fill="#73FFCD" fill-opacity="0.3" style="mix-blend-mode:multiply"/>
<path fill-rule="evenodd" clip-rule="evenodd" d="M0 300.912L27.2 230.569C52.8 160.226 107.2 19.5395 160 72.2969C212.8 125.054 267.2 371.255 320 494.356C372.8 617.456 427.2 617.456 480 547.113C532.8 476.77 587.2 336.084 640 248.155C692.8 160.226 747.2 125.054 800 212.983C852.8 300.912 907.2 511.941 960 511.941C1012.8 511.941 1067.2 300.912 1120 318.498C1172.8 336.084 1227.2 582.284 1280 635.042C1332.8 687.799 1387.2 547.113 1440 459.184C1492.8 371.255 1547.2 336.084 1600 248.155C1652.8 160.226 1707.2 19.5395 1760 1.95375C1812.8 -15.632 1867.2 89.8826 1892.8 142.64L1920 195.397V934H1892.8C1867.2 934 1812.8 934 1760 934C1707.2 934 1652.8 934 1600 934C1547.2 934 1492.8 934 1440 934C1387.2 934 1332.8 934 1280 934C1227.2 934 1172.8 934 1120 934C1067.2 934 1012.8 934 960 934C907.2 934 852.8 934 800 934C747.2 934 692.8 934 640 934C587.2 934 532.8 934 480 934C427.2 934 372.8 934 320 934C267.2 934 212.8 934 160 934C107.2 934 52.8 934 27.2 934H0V300.912Z" />
<path fill-rule="evenodd" clip-rule="evenodd" d="M0 780.148L20.8 716.043C43.2 651.938 84.8 523.728 128 536.549C171.2 549.37 212.8 703.222 256 664.759C299.2 626.296 340.8 395.518 384 369.876C427.2 344.234 468.8 523.728 512 549.37C555.2 575.012 596.8 446.802 640 459.623C683.2 472.444 724.8 626.296 768 600.654C811.2 575.012 852.8 369.876 896 267.308C939.2 164.74 980.8 164.74 1024 254.487C1067.2 344.234 1108.8 523.728 1152 523.728C1195.2 523.728 1236.8 344.234 1280 305.771C1323.2 267.308 1364.8 369.876 1408 408.339C1451.2 446.802 1492.8 421.16 1536 472.444C1579.2 523.728 1620.8 651.938 1664 613.475C1707.2 575.012 1748.8 369.876 1792 331.413C1835.2 292.95 1876.8 421.16 1899.2 485.265L1920 549.37V934H1899.2C1876.8 934 1835.2 934 1792 934C1748.8 934 1707.2 934 1664 934C1620.8 934 1579.2 934 1536 934C1492.8 934 1451.2 934 1408 934C1364.8 934 1323.2 934 1280 934C1236.8 934 1195.2 934 1152 934C1108.8 934 1067.2 934 1024 934C980.8 934 939.2 934 896 934C852.8 934 811.2 934 768 934C724.8 934 683.2 934 640 934C596.8 934 555.2 934 512 934C468.8 934 427.2 934 384 934C340.8 934 299.2 934 256 934C212.8 934 171.2 934 128 934C84.8 934 43.2 934 20.8 934H0V780.148Z" fill="#7DFFD1" fill-opacity="0.3"/>
<path fill-rule="evenodd" clip-rule="evenodd" d="M0 789.061L8 813.217C17.6 837.374 35.2 885.687 51.2 837.374C68.8 789.061 86.4 644.122 104 628.017C121.6 611.913 137.6 724.643 155.2 789.061C172.8 853.478 190.4 869.583 208 869.583C225.6 869.583 241.6 853.478 259.2 845.426C276.8 837.374 294.4 837.374 312 789.061C328 740.748 345.6 644.122 363.2 644.122C380.8 644.122 398.4 740.748 414.4 748.8C432 756.852 449.6 676.33 467.2 652.174C484.8 628.017 502.4 660.226 518.4 644.122C536 628.017 553.6 563.6 571.2 555.548C588.8 547.495 604.8 595.808 622.4 628.017C640 660.226 657.6 676.33 675.2 644.122C691.2 611.913 708.8 531.391 726.4 491.13C744 450.869 761.6 450.869 777.6 523.339C795.2 595.808 812.8 740.748 830.4 789.061C848 837.374 865.6 789.061 881.6 732.696C899.2 676.33 916.8 611.913 934.4 644.122C952 676.33 968 805.165 985.6 829.322C1003.2 853.478 1020.8 772.956 1038.4 764.904C1054.4 756.852 1072 821.27 1089.6 813.217C1107.2 805.165 1124.8 724.643 1142.4 668.278C1158.4 611.913 1176 579.704 1193.6 579.704C1211.2 579.704 1228.8 611.913 1244.8 652.174C1262.4 692.435 1280 740.748 1297.6 772.956C1315.2 805.165 1331.2 821.27 1348.8 813.217C1366.4 805.165 1384 772.956 1401.6 772.956C1417.6 772.956 1435.2 805.165 1452.8 805.165C1470.4 805.165 1488 772.956 1505.6 756.852C1521.6 740.748 1539.2 740.748 1556.8 748.8C1574.4 756.852 1592 772.956 1608 732.696C1625.6 692.435 1643.2 595.808 1660.8 563.6C1678.4 531.391 1694.4 563.6 1712 595.808C1729.6 628.017 1747.2 660.226 1764.8 636.069C1782.4 611.913 1798.4 531.391 1816 491.13C1833.6 450.869 1851.2 450.869 1868.8 466.974C1884.8 483.078 1902.4 515.287 1912 531.391L1920 547.495V934H1912C1902.4 934 1884.8 934 1868.8 934C1851.2 934 1833.6 934 1816 934C1798.4 934 1782.4 934 1764.8 934C1747.2 934 1729.6 934 1712 934C1694.4 934 1678.4 934 1660.8 934C1643.2 934 1625.6 934 1608 934C1592 934 1574.4 934 1556.8 934C1539.2 934 1521.6 934 1505.6 934C1488 934 1470.4 934 1452.8 934C1435.2 934 1417.6 934 1401.6 934C1384 934 1366.4 934 1348.8 934C1331.2 934 1315.2 934 1297.6 934C1280 934 1262.4 934 1244.8 934C1228.8 934 1211.2 934 1193.6 934C1176 934 1158.4 934 1142.4 934C1124.8 934 1107.2 934 1089.6 934C1072 934 1054.4 934 1038.4 934C1020.8 934 1003.2 934 985.6 934C968 934 952 934 934.4 934C916.8 934 899.2 934 881.6 934C865.6 934 848 934 830.4 934C812.8 934 795.2 934 777.6 934C761.6 934 744 934 726.4 934C708.8 934 691.2 934 675.2 934C657.6 934 640 934 622.4 934C604.8 934 588.8 934 571.2 934C553.6 934 536 934 518.4 934C502.4 934 484.8 934 467.2 934C449.6 934 432 934 414.4 934C398.4 934 380.8 934 363.2 934C345.6 934 328 934 312 934C294.4 934 276.8 934 259.2 934C241.6 934 225.6 934 208 934C190.4 934 172.8 934 155.2 934C137.6 934 121.6 934 104 934C86.4 934 68.8 934 51.2 934C35.2 934 17.6 934 8 934H0V789.061Z" fill="#87FFD4" fill-opacity="0.3"/>
</svg>
